<svg xmlns="http://www.w3.org/2000/svg" viewBox="0 0 16 16"><path fill="currentColor" fill-rule="nonzero" stroke="none" stroke-width="1" d="M13.625 4.25a.625.625 0 1 1 0 1.25H12.59l-.385 6.746a2.125 2.125 0 0 1-1.97 1.999l-.152.005H5.917a2.125 2.125 0 0 1-2.122-2.004L3.41 5.5H2.375a.625.625 0 1 1 0-1.25h11.25ZM11.338 5.5H4.661l.382 6.675a.875.875 0 0 0 .768.819l.106.006h4.166a.875.875 0 0 0 .874-.825l.381-6.675ZM6.75 7c.345 0 .625.28.625.625v2.75a.625.625 0 1 1-1.25 0v-2.75c0-.345.28-.625.625-.625Zm2.5 0c.345 0 .625.28.625.625v2.75a.625.625 0 1 1-1.25 0v-2.75c0-.345.28-.625.625-.625Zm1.625-5.25a.625.625 0 1 1 0 1.25h-5.75a.625.625 0 1 1 0-1.25h5.75Z" transform="translate(-1196 -662) translate(1176 56) translate(20 604) translate(0 2)"/></svg>
