<svg xmlns="http://www.w3.org/2000/svg" width="13.25" height="13.25"><path fill="currentColor" fill-rule="nonzero" d="m1.964 0 .174.003.448.022c1.318.07 2.117.19 2.832.513.47.212.836.438 1.133.705a2.557 2.557 0 0 1 .65-.432l.036-.018c.237-.116.484-.21.926-.36l.142-.049C9.155.1 9.83.01 11.029.003h.112C12.565 0 13.25.825 13.25 2.12v7.961c0 1.17-.942 2.118-2.109 2.118h-2.44c-.222 0-.555.076-.842.2-.27.118-.445.255-.474.324-.119.28-.353.501-.68.525a.695.695 0 0 1-.305-.046.736.736 0 0 1-.285-.148.952.952 0 0 1-.256-.344.439.439 0 0 0-.118-.125 1.584 1.584 0 0 0-.334-.195 2.135 2.135 0 0 0-.787-.191H2.11A2.111 2.111 0 0 1 0 10.081v-7.96C0 .846.781-.062 2.138.002Zm9.178 1.252h-.052c-1.128.004-1.685.078-2.423.33l-.033.01c-.884.302-1.208.469-1.347.7l.021-.033-.002 9.015a3.542 3.542 0 0 1 1.161-.315l.205-.01h2.469a.861.861 0 0 0 .859-.868V2.1c-.004-.634-.189-.847-.858-.847Zm-9.085-.001c-.567-.02-.807.267-.807.87v7.96c0 .482.384.868.859.868H4.62c.454 0 .97.13 1.412.352l-.089-.041V2.418c-.192-.25-.44-.445-.826-.64l-.179-.085-.034-.016c-.529-.238-1.215-.342-2.383-.404l-.111-.005Z"/></svg>
