<svg xmlns="http://www.w3.org/2000/svg" width="16" height="16"><path fill="currentColor" fillRule="nonzero" d="M14.375 13.438H2a.125.125 0 0 0-.125.124v.876c0 .068.056.124.125.124h12.375a.125.125 0 0 0 .125-.124v-.876a.125.125 0 0 0-.125-.124ZM14.42 3H8.58c-.044 0-.08.056-.08.125V4c0 .069.036.125.08.125h5.84c.044 0 .08-.056.08-.125v-.875c0-.069-.036-.125-.08-.125ZM7 1.403H2.25a.25.25 0 0 0-.25.25v4.75c0 .138.112.25.25.25H7a.25.25 0 0 0 .25-.25v-4.75a.25.25 0 0 0-.25-.25Zm-.813 4.188H3.063V2.466h3.126V5.59Zm8.153 2.814H2.19c-.088 0-.16.057-.16.125v.875c0 .07.072.125.16.125h12.15c.088 0 .16-.056.16-.125V8.53c0-.068-.072-.125-.16-.125Z"/></svg>
