<svg xmlns="http://www.w3.org/2000/svg" viewBox="0 0 14 14"><g fill="none" fill-rule="evenodd"><path d="M2.8 0h8.4A2.8 2.8 0 0 1 14 2.8v8.4a2.8 2.8 0 0 1-2.8 2.8H2.8A2.8 2.8 0 0 1 0 11.2V2.8A2.8 2.8 0 0 1 2.8 0Z"/><path fill="#262626" fill-rule="nonzero" d="M4.719 1H3.187a1.64 1.64 0 0 0-1.64 1.64v1.532c0 .906.734 1.64 1.64 1.64H4.72a1.64 1.64 0 0 0 1.64-1.64V2.64A1.64 1.64 0 0 0 4.72 1Zm0 1.094c.302 0 .546.245.546.547v1.53a.547.547 0 0 1-.546.548H3.187a.547.547 0 0 1-.547-.547V2.64c0-.302.245-.547.547-.547H4.72Zm3.553.773 4.032.02a.547.547 0 0 1-.005 1.093l-4.03-.019a.547.547 0 0 1 .003-1.094ZM2.092 6.98 12.305 7a.547.547 0 0 1-.005 1.094l-10.21-.02a.547.547 0 0 1 .004-1.094Zm0 4.114 10.212.019a.547.547 0 0 1-.005 1.094l-10.21-.02a.547.547 0 0 1 .004-1.093Z"/></g></svg>
