<svg xmlns="http://www.w3.org/2000/svg" viewBox="0 0 21.295 21.022"><defs><linearGradient id="a" x1="50%" x2="50%" y1="-73.536%" y2="88.033%"><stop offset="0%" stop-color="#45DE9D"/><stop offset="100%" stop-color="#FFF"/></linearGradient><linearGradient id="b" x1="78.753%" x2="42.716%" y1="111.606%" y2="31.6%"><stop offset="0%" stop-color="#CCF6E4"/><stop offset="100%" stop-color="#FFF"/></linearGradient><path id="c" d="M0 0h22v22H0z"/></defs><g fill="none" fill-rule="evenodd"><path fill="url(#a)" stroke="#262626" stroke-width="1.071" d="M13.265.74a3.667 3.667 0 0 1 2.685.847 3.667 3.667 0 0 1 1.3 2.497l1.036 11.833a3.667 3.667 0 0 1-.847 2.685 3.667 3.667 0 0 1-2.497 1.3l-8.681.76a3.667 3.667 0 0 1-2.685-.847 3.667 3.667 0 0 1-1.3-2.497L1.24 5.485A3.667 3.667 0 0 1 2.087 2.8a3.667 3.667 0 0 1 2.497-1.3Z" transform="translate(-.69 -.19)"/><path fill="url(#b)" d="M5.406 1.62h8.714a3.143 3.143 0 0 1 3.143 3.142V16.64a3.143 3.143 0 0 1-3.143 3.143H5.406a3.143 3.143 0 0 1-3.143-3.143V4.762A3.143 3.143 0 0 1 5.406 1.62Z" transform="rotate(-5 7.239 18.511)"/><path fill="#009456" stroke="#262626" d="M17.325 6.565a1.308 1.308 0 0 1 1.85-.065l.876.818c.492.458.555 1.214.134 1.767l-.07.082-6.745 7.52c-.135.145-.306.25-.496.307l-2.161.642a.71.71 0 0 1-.894-.834l.489-2.2c.043-.194.137-.372.271-.516l6.746-7.521Z"/><path fill="#262626" d="M18.353 7.345a.29.29 0 0 0-.409.014l-.605.649 1.3 1.212.588-.63.037-.041a.29.29 0 0 0-.034-.387l-.877-.817Z"/><g stroke="#262626" stroke-linecap="round" stroke-width="1.875"><path d="m11.074 6.215.2 1.627M4.9 6.903l.2 1.626"/></g></g></svg>
