<svg xmlns="http://www.w3.org/2000/svg" viewBox="0 0 12.5 12.46"><path fill="currentColor" fillRule="nonzero" d="M9.431.113a.625.625 0 0 1 .154.87l-2.58 3.684L8.66 7.029a2.812 2.812 0 1 1-1.033.705L6.243 5.757 4.865 7.725c.461.492.748 1.15.76 1.876v.047a2.813 2.813 0 1 1-1.796-2.624l1.65-2.357L2.902.984a.625.625 0 0 1 .138-.86l.015-.01a.625.625 0 0 1 .86.138l.01.015 2.319 3.31L8.56.267a.625.625 0 0 1 .87-.154ZM2.813 8.085a1.563 1.563 0 1 0 .97.338.62.62 0 0 1-.21-.14 1.555 1.555 0 0 0-.76-.198Zm6.874 0c-.29 0-.563.08-.796.218a.601.601 0 0 1-.05.042l-.015.01a.63.63 0 0 1-.09.053 1.563 1.563 0 1 0 .95-.323Z"/></svg>
