<svg xmlns="http://www.w3.org/2000/svg" viewBox="0 0 16 16"><g fill="none" fill-rule="evenodd"><path d="M0 0h16v16H0z"/><path fill="#262626" fill-rule="nonzero" d="M11.625 1h-7.25C3.339 1 2.5 1.84 2.5 2.875v10.25C2.5 14.161 3.34 15 4.375 15h7.25c1.036 0 1.875-.84 1.875-1.875V2.875C13.5 1.839 12.66 1 11.625 1Zm-7.25 1.25h7.25c.345 0 .625.28.625.625v10.25c0 .345-.28.625-.625.625h-7.25a.625.625 0 0 1-.625-.625V2.875c0-.345.28-.625.625-.625Z"/><rect width="6" height="1.25" x="5" y="4.375" fill="#262626" rx=".625"/><rect width="6" height="1.25" x="5" y="7.375" fill="#262626" rx=".625"/><rect width="6" height="1.25" x="5" y="10.375" fill="#262626" rx=".625"/></g></svg>