<svg xmlns="http://www.w3.org/2000/svg" viewBox="0 0 16 16"><path fill="#000" fill-rule="nonzero" d="M11.181 1.903a.625.625 0 0 1 .154.87l-2.58 3.684 1.655 2.362a2.812 2.812 0 1 1-1.033.705L7.993 7.545 6.615 9.514c.461.493.748 1.151.76 1.877v.047a2.813 2.813 0 1 1-1.796-2.624l1.65-2.357-2.578-3.684a.625.625 0 0 1 .138-.86l.015-.01a.625.625 0 0 1 .86.138l.01.015 2.319 3.311 2.318-3.31a.625.625 0 0 1 .87-.154ZM4.563 9.875a1.563 1.563 0 1 0 .97.338.62.62 0 0 1-.21-.14 1.555 1.555 0 0 0-.76-.198Zm6.875 0c-.292 0-.564.08-.797.218a.601.601 0 0 1-.05.042l-.015.01a.63.63 0 0 1-.09.053 1.563 1.563 0 1 0 .95-.323Z"/></svg>