<svg xmlns="http://www.w3.org/2000/svg" viewBox="0 0 256 256"><path fill="currentColor" fill-rule="evenodd" stroke="none" stroke-width="1" d="M35.41 34.499c4.296-4.296 11.261-4.296 15.557 0l78.489 78.488L207.945 34.5c4.295-4.296 11.26-4.296 15.556 0 4.296 4.296 4.296 11.26 0 15.556l-78.488 78.49 78.488 78.488c4.22 4.22 4.294 11.017.222 15.328l-.222.228c-4.296 4.296-11.26 4.296-15.556 0l-78.49-78.488-78.488 78.488c-4.296 4.296-11.26 4.296-15.556 0-4.296-4.295-4.296-11.26 0-15.556l78.488-78.489L35.41 50.055c-4.22-4.22-4.295-11.017-.222-15.328Z"/></svg>
