<?xml version="1.0" encoding="UTF-8"?>
<svg width="16px" height="17px" viewBox="0 0 16 17" version="1.1" xmlns="http://www.w3.org/2000/svg" xmlns:xlink="http://www.w3.org/1999/xlink">
    <title>1.line/3.文档编辑器/链接</title>
    <defs>
        <rect id="path-1" x="0" y="0" width="16" height="16"></rect>
    </defs>
    <g id="设计稿" stroke="none" stroke-width="1" fill="none" fill-rule="evenodd">
        <g id="编组-28备份-12" transform="translate(-246.000000, -62.000000)">
            <g id="编组-60" transform="translate(16.000000, 60.000000)">
                <g id="编组-58" transform="translate(230.000000, 0.000000)">
                    <g id="icon/链接" transform="translate(0.000000, 2.000000)">
                        <mask id="mask-2" fill="white">
                            <use xlink:href="#path-1"></use>
                        </mask>
                        <g id="蒙版"></g>
                        <path d="M10.4354839,8.25659891 C10.7419732,8.25659891 10.9914155,8.51011477 10.9997831,8.82613573 L11,8.84253641 L11,11.3933556 C11,13.386387 9.43191183,15 7.5,15 C5.58740729,15 4.03139815,13.4184979 4.00046922,11.4530315 L4,11.3933556 L4,8.84253641 C4,8.51893206 4.25274248,8.25659891 4.56451613,8.25659891 C4.87100548,8.25659891 5.12044776,8.51011477 5.12881538,8.82613573 L5.12903226,8.84253641 L5.12903226,11.3933556 C5.12903226,12.7369048 6.18946587,13.828125 7.5,13.828125 C8.79742878,13.828125 9.84973406,12.7586201 9.87065042,11.4335855 L9.87096774,11.3933556 L9.87096774,8.84253641 C9.87096774,8.51893206 10.1237102,8.25659891 10.4354839,8.25659891 Z M7.5,3.77071602 C7.80648935,3.77071602 8.05593163,4.02423189 8.06429925,4.34025284 L8.06451613,4.35665352 L8.06451613,10.6847785 C8.06451613,11.0083829 7.81177365,11.270716 7.5,11.270716 C7.19351065,11.270716 6.94406837,11.0172002 6.93570075,10.7011792 L6.93548387,10.6847785 L6.93548387,4.35665352 C6.93548387,4.03304917 7.18822635,3.77071602 7.5,3.77071602 Z M7.5,1.20792265e-13 C9.41259271,1.20792265e-13 10.9686019,1.58150205 10.9995308,3.54696853 L11,3.60664442 L11,6.15746359 C11,6.48106794 10.7472575,6.74340109 10.4354839,6.74340109 C10.1289945,6.74340109 9.87955224,6.48988523 9.87118462,6.17386427 L9.87096774,6.15746359 L9.87096774,3.60664442 C9.87096774,2.26309515 8.81053413,1.171875 7.5,1.171875 C6.20257122,1.171875 5.15026594,2.24137987 5.12934958,3.56641448 L5.12903226,3.60664442 L5.12903226,6.15746359 C5.12903226,6.48106794 4.87628978,6.74340109 4.56451613,6.74340109 C4.25802678,6.74340109 4.0085845,6.48988523 4.00021688,6.17386427 L4,6.15746359 L4,3.60664442 C4,1.61361295 5.56808817,1.20792265e-13 7.5,1.20792265e-13 Z" id="形状结合" fill="#262626" fill-rule="nonzero" mask="url(#mask-2)" transform="translate(7.500000, 7.500000) rotate(45.000000) translate(-7.500000, -7.500000) "></path>
                    </g>
                </g>
            </g>
        </g>
    </g>
</svg>