<svg xmlns="http://www.w3.org/2000/svg" xmlns:xlink="http://www.w3.org/1999/xlink" viewBox="0 0 14 14"><defs><path id="a" d="M0 0h16v16H0z"/></defs><g fill="none" fill-rule="evenodd" transform="translate(-1 -1)"><mask id="b" fill="#fff"><use xlink:href="#a"/></mask><path fill="#262626" fill-rule="nonzero" d="M11.25 8.807c.34 0 .615.27.625.608v2.737C11.875 14.28 10.139 16 8 16c-2.118 0-3.84-1.687-3.874-3.783l-.001-.064V9.432a.625.625 0 0 1 1.25-.017v2.737c0 1.434 1.174 2.598 2.625 2.598 1.436 0 2.601-1.14 2.625-2.554V9.432c0-.345.28-.625.625-.625ZM8 4.022c.34 0 .615.27.625.608v6.767a.625.625 0 0 1-1.25.018V4.647c0-.345.28-.625.625-.625ZM8 0c2.118 0 3.84 1.687 3.874 3.783l.001.064v2.721a.625.625 0 0 1-1.25.017V3.848C10.625 2.413 9.451 1.25 8 1.25c-1.436 0-2.601 1.14-2.625 2.554V6.568a.625.625 0 0 1-1.25.017V3.848C4.125 1.72 5.861 0 8 0Z" mask="url(#b)" transform="rotate(45 8 8)"/></g></svg>