<svg xmlns="http://www.w3.org/2000/svg" viewBox="0 0 256 256"><path fill="#262626" fill-rule="nonzero" stroke="none" stroke-width="1" d="M128 17c61.304 0 111 49.696 111 111s-49.696 111-111 111H31c-7.903 0-12.683-8.735-8.422-15.391l17.677-27.617-.263-.339c-14.615-18.979-22.809-42.27-22.989-66.825L17 128C17 66.696 66.696 17 128 17Zm0 20c-50.258 0-91 40.742-91 91 0 22.66 8.3 44.004 23.081 60.566a10 10 0 0 1 .962 12.05L49.273 219H128c49.755 0 90.184-39.931 90.988-89.495L219 128c0-50.258-40.742-91-91-91Zm15 105c5.523 0 10 4.477 10 10s-4.477 10-10 10H83c-5.523 0-10-4.477-10-10s4.477-10 10-10h60Zm30-48c5.523 0 10 4.477 10 10s-4.477 10-10 10H83c-5.523 0-10-4.477-10-10s4.477-10 10-10h90Z"/></svg>