<svg xmlns="http://www.w3.org/2000/svg" viewBox="0 0 12.5 12.5"><g fill="#8A8F8D" fillRule="nonzero"><path d="M10.625 0h-5C4.589 0 3.75.84 3.75 1.875v5c0 1.036.84 1.875 1.875 1.875h5c1.036 0 1.875-.84 1.875-1.875v-5C12.5.839 11.66 0 10.625 0Zm-5 1.25h5c.345 0 .625.28.625.625v5c0 .345-.28.625-.625.625h-5A.625.625 0 0 1 5 6.875v-5c0-.345.28-.625.625-.625Z"/><path d="M4.35 3.75V5H1.875c-.34 0-.615.27-.625.608v5.017c0 .34.27.615.608.625h5.017c.34 0 .615-.27.625-.608V8.081h1.25v2.544A1.875 1.875 0 0 1 6.906 12.5H1.875A1.875 1.875 0 0 1 0 10.656V5.625C0 4.6.823 3.767 1.844 3.75H4.35Z"/></g></svg>
