<svg xmlns="http://www.w3.org/2000/svg" viewBox="0 0 256 256"><defs><clipPath id="a"><path d="M116.642 13.638C135.127 5.393 161.814-.686 181.028.062c10.418.405 18.328 9.39 17.962 19.835a19.6 19.6 0 0 1-1.313 6.402l-16.668 42.916c-1.236 3.186-3.499 5.848-6.734 8.56l-1.083.906-8.456 3.742 6.495.287-5.468 13.919c-1.71 4.327-2.83 6.976-3.656 8.533l-.24.435c-13.191 23-31.691 39.583-57.312 53.5l-.786.425c-4.15 2.245-7.616 4.046-11.091 5.722l-1.305.624-.779.366-.783.364c-5.705 2.636-11.93 5.176-21.597 8.968l-5.813 2.272-.992.393c-4.542 1.845-11.2 5.59-17.86 9.993l-1.109.74c-6.13 4.121-11.3 8.24-12.444 9.592l-.114.143c-2.961 4.05-6.241 9.858-9.765 17.37l-.049.101-.49 1.171c-2.17 5.189-8.133 7.637-13.322 5.468a10.182 10.182 0 0 1-6.148-10.866c.288-1.975.662-4.342 1.12-7.108l.428-2.553c6.01-35.39 15.146-71.422 27.028-96.377C42.919 76.007 53.126 60.66 68.443 45.21l.944-.947c12.93-12.873 27.324-21.736 47.255-30.625Zm61.287 6.36c-15.807-.051-38.04 5.17-53.14 11.905-17.905 7.986-30.372 15.662-41.29 26.533-13.671 13.611-22.611 26.699-35.546 53.537l-1.212 2.53c-7.502 15.756-14.004 37.116-19.194 59.911l-.145.636.814-.575c8.44-5.94 18.595-11.922 25.837-14.843l.41-.163 5.174-2.023c10.837-4.242 17.176-6.826 23.13-9.638l.723-.344c3.611-1.726 7.141-3.565 11.519-5.943l.896-.49c19.642-10.798 34.056-23.059 44.764-39.156l.345-.525-5.078-.271a695.06 695.06 0 0 1-2.832-.165l-2.505-.158-2.657-.185a126.94 126.94 0 0 1-3.527-.303l-.798-.088c-1.065-.126-1.867-.254-2.686-.469-.448-.117-.89-.257-1.379-.455-1.15-.466-2.201-1.065-3.343-2.189-2.958-2.912-4.136-7.634-1.775-11.961 1.302-2.386 2.896-3.548 4.745-4.378l43.186-19.127.062-.059.178-.187 16.06-41.35Z"/></clipPath></defs><g clip-path="url(#a)" transform="rotate(5 -64.979 447.7)"><path fill="currentColor" d="M1.42108547e-14 5.68087244e-14 199.002279 5.68087244e-14 199.002279 223.599651 1.42108547e-14 223.599651 1.42108547e-14 5.68087244e-14z"/></g></svg>
