<svg xmlns="http://www.w3.org/2000/svg" viewBox="0 0 16 16"><path fill="#262626" fill-rule="nonzero" d="m8.704 1.953.022.014 4.791 3.16c.364.239.585.642.593 1.076v6.033a2.014 2.014 0 0 1-1.98 2.013H9.901l-.026.001a.625.625 0 0 1-.625-.608V10.64c0-.7-.56-1.265-1.25-1.265-.682 0-1.238.554-1.25 1.243v3.007c0 .345-.28.625-.625.625l-.025-.001H3.903a2.014 2.014 0 0 1-2.013-1.98V6.228c0-.436.214-.842.572-1.088l.02-.014 4.792-3.159a1.32 1.32 0 0 1 1.43-.014ZM7.97 3.006 3.17 6.17a.07.07 0 0 0-.03.049v6.017c0 .415.331.753.744.763H5.5V10.64A2.508 2.508 0 0 1 8 8.125a2.507 2.507 0 0 1 2.5 2.474v2.4h1.597a.764.764 0 0 0 .763-.744V6.228a.07.07 0 0 0-.024-.053L8.038 3.01a.07.07 0 0 0-.068-.005Z"/></svg>