<svg xmlns="http://www.w3.org/2000/svg" width="13.608" height="15.006"><path fill="currentColor" fill-rule="nonzero" d="M8.406 1.484c-1.29.445-2.234.919-3.109 1.65l-.064.054c-1.038.878-1.757 1.778-2.806 3.562-.876 1.49-1.64 3.683-2.208 5.854l-.04.156c-.044.17-.08.315-.109.437a.636.636 0 0 0 1.183.442l.037-.07.004-.007c.26-.448.496-.792.702-1.028l.008-.008c.079-.078.423-.306.827-.53l.073-.04c.439-.237.874-.434 1.167-.524l.064-.02.374-.11a24.781 24.781 0 0 0 1.393-.44l.051-.018.05-.019.085-.032c.226-.085.451-.178.722-.296l.051-.022c1.671-.727 2.913-1.658 3.86-3.019l.017-.025c.06-.093.144-.252.274-.512l.417-.837-.403-.053.547-.187.072-.05c.216-.151.372-.305.466-.497l1.272-2.58c.06-.124.1-.256.116-.392.08-.649-.364-1.251-1.01-1.333-1.192-.151-2.887.082-4.083.494Zm3.781.73.046.005-1.225 2.487-.012.01-.004.004-2.793.955a.588.588 0 0 0-.32.247.62.62 0 0 0 .046.755.603.603 0 0 0 .28.19c.05.018.098.03.164.044l.05.01c.058.01.13.024.217.038l.165.026.155.023.175.026.315.044-.025.031c-.754.944-1.718 1.629-3 2.194l-.058.026c-.286.124-.516.22-.75.307l-.047.018c-.386.142-.795.269-1.492.474l-.334.098-.026.007c-.467.143-1.132.46-1.69.784l-.053.031.012-.039c.447-1.39.969-2.685 1.521-3.625l.09-.151c.951-1.6 1.58-2.367 2.504-3.14.74-.617 1.558-1.027 2.716-1.427.977-.337 2.39-.54 3.373-.452Z"/></svg>
