<svg xmlns="http://www.w3.org/2000/svg" viewBox="0 0 12.75 12.75"><path fill="currentColor" fill-rule="nonzero" d="M.625 8c.345 0 .625.28.625.625l-.005-.063.005 1.688c0 .69.56 1.25 1.25 1.25h1.874a.63.63 0 0 1 .564.625c0 .345-.28.625-.625.625l.061-.005-1.874.005a2.5 2.5 0 0 1-2.5-2.5V8.562A.63.63 0 0 1 .625 8Zm11.5 0c.345 0 .625.28.625.625l-.005-.063.005 1.688a2.5 2.5 0 0 1-2.5 2.5H8.374l-.091-.007a.625.625 0 0 1 .092-1.243h1.875c.69 0 1.25-.56 1.25-1.25V8.562A.63.63 0 0 1 12.125 8ZM6.803 2.589a1 1 0 0 1 .558.563L9.768 9.3a.625.625 0 0 1-1.164.455L7.83 7.78H4.984l-.78 1.938a.625.625 0 0 1-.796.353l-.016-.006a.625.625 0 0 1-.347-.813l2.457-6.109a1 1 0 0 1 1.301-.554Zm-.376 1.605-.94 2.336H7.34l-.914-2.336ZM4.375 0a.625.625 0 0 1 0 1.25H2.5c-.69 0-1.25.56-1.25 1.25v2.125a.625.625 0 0 1-.533.618l-.092.007a.625.625 0 0 1-.622-.688L0 2.5A2.5 2.5 0 0 1 2.5 0h1.875Zm5.875 0a2.5 2.5 0 0 1 2.5 2.5v2.062a.625.625 0 1 1-1.25 0V2.5c0-.69-.56-1.25-1.25-1.25H8.375l-.092-.007A.625.625 0 0 1 8.375 0h1.875Z"/></svg>
