<svg xmlns="http://www.w3.org/2000/svg" viewBox="0 0 16 16"><path fill="currentColor" fill-rule="nonzero" d="M2.25 9.625c.345 0 .625.28.625.625l-.005-.063.005 1.688c0 .69.56 1.25 1.25 1.25h1.874a.63.63 0 0 1 .564.625c0 .345-.28.625-.625.625l.061-.005-1.874.005a2.5 2.5 0 0 1-2.5-2.5v-1.688a.63.63 0 0 1 .625-.562Zm11.5 0c.345 0 .625.28.625.625l-.005-.063.005 1.688a2.5 2.5 0 0 1-2.5 2.5H9.999l-.091-.007A.625.625 0 0 1 10 13.125h1.875c.69 0 1.25-.56 1.25-1.25v-1.688a.63.63 0 0 1 .625-.562ZM8.428 4.214a1 1 0 0 1 .558.563l2.407 6.148a.625.625 0 0 1-1.164.455l-.774-1.975H6.609l-.78 1.938a.625.625 0 0 1-.796.353l-.016-.006a.625.625 0 0 1-.347-.813l2.457-6.109a1 1 0 0 1 1.301-.554Zm-.376 1.605-.94 2.336h1.854L8.052 5.82ZM6 1.625a.625.625 0 0 1 0 1.25H4.125c-.69 0-1.25.56-1.25 1.25V6.25a.625.625 0 0 1-.533.618l-.092.007a.625.625 0 0 1-.622-.688l-.003-2.062a2.5 2.5 0 0 1 2.5-2.5H6Zm5.875 0a2.5 2.5 0 0 1 2.5 2.5v2.062a.625.625 0 1 1-1.25 0V4.125c0-.69-.56-1.25-1.25-1.25H10l-.092-.007A.625.625 0 0 1 10 1.625h1.875Z"/></svg>
