<svg xmlns="http://www.w3.org/2000/svg" viewBox="0 0 16 16"><path fill="#262626" fill-rule="nonzero" d="m6.741 1.172-.04.007-.022.004c-.43.088-.765.427-.845.86l-.161.87-.006.002a5.6 5.6 0 0 0-.891.507l-.062.044-.84-.297a1.08 1.08 0 0 0-1.166.301l-.038.044a6.91 6.91 0 0 0-1.22 2.079l-.024.067-.018.051c-.14.416-.013.875.32 1.16l.681.58-.005.057A5.668 5.668 0 0 0 2.383 8v.07c.002.142.009.282.021.423l.005.055-.679.578a1.075 1.075 0 0 0-.323 1.16l.021.06a6.888 6.888 0 0 0 1.24 2.137l.027.032.016.017a1.08 1.08 0 0 0 1.16.3l.842-.299.008.006c.278.2.575.373.886.518l.066.03.161.87c.081.44.427.783.868.863l.037.007a6.996 6.996 0 0 0 2.473 0l.041-.007.022-.004c.429-.088.765-.427.844-.86l.16-.862.008-.004c.335-.15.655-.335.954-.549l.007-.005.83.294a1.08 1.08 0 0 0 1.168-.301l.037-.044c.53-.622.939-1.32 1.22-2.079l.025-.066.016-.049a1.074 1.074 0 0 0-.319-1.16l-.67-.571.006-.065c.015-.164.022-.33.022-.494v-.07a5.652 5.652 0 0 0-.022-.424l-.006-.065.668-.569c.335-.284.462-.744.323-1.16l-.02-.06a6.872 6.872 0 0 0-1.24-2.137l-.028-.032-.015-.017a1.08 1.08 0 0 0-1.16-.3l-.835.296-.009-.006a5.61 5.61 0 0 0-.89-.52l-.07-.031-.16-.864a1.077 1.077 0 0 0-.867-.863l-.037-.007a7.044 7.044 0 0 0-2.474 0Zm2.129 1.21.042.006.265 1.427.33.124c.448.168.865.408 1.235.71l.272.223 1.37-.485.031.037c.377.462.677.98.89 1.536l.016.04-1.103.94.057.348a4.423 4.423 0 0 1 0 1.426l-.057.349L13.32 10l-.014.037a5.65 5.65 0 0 1-.893 1.54l-.029.034-1.37-.485-.273.224c-.37.302-.786.542-1.233.71l-.331.123-.265 1.427-.056.009a5.76 5.76 0 0 1-.88.067H7.91a5.762 5.762 0 0 1-.813-.067l-.055-.01-.266-1.432-.33-.123a4.324 4.324 0 0 1-1.225-.708l-.272-.223-1.379.488-.028-.034a5.631 5.631 0 0 1-.895-1.543L2.632 10l1.116-.948-.059-.35a4.288 4.288 0 0 1 0-1.404l.058-.349L2.632 6l.015-.039a5.65 5.65 0 0 1 .893-1.539l.03-.035 1.378.488.272-.223c.368-.301.782-.54 1.226-.708l.33-.124.265-1.432.045-.007a5.803 5.803 0 0 1 1.784 0ZM8 5.625a2.375 2.375 0 1 0 0 4.75 2.375 2.375 0 0 0 0-4.75Zm0 1.25a1.125 1.125 0 1 1 0 2.25 1.125 1.125 0 0 1 0-2.25Z"/></svg>
