<svg xmlns="http://www.w3.org/2000/svg" viewBox="0 0 256 256"><path fill="#000" fill-rule="nonzero" stroke="none" stroke-width="1" d="M128 16c61.856 0 112 50.144 112 112s-50.144 112-112 112S16 189.856 16 128 66.144 16 128 16Zm0 20c-50.81 0-92 41.19-92 92s41.19 92 92 92 92-41.19 92-92-41.19-92-92-92Zm-7 27.5c5.43 0 9.848 4.327 9.996 9.72l.004.28v53.568a10 10 0 0 0 3.086 7.224l.24.223 32.226 28.883c4.113 3.686 4.458 10.008.772 14.12-3.619 4.039-9.779 4.446-13.894.97l-.227-.197-32.226-28.883a30 30 0 0 1-9.973-21.858l-.004-.482V73.501c0-5.523 4.477-10 10-10Z"/></svg>