<svg xmlns="http://www.w3.org/2000/svg" viewBox="0 0 16 16"><defs><path id="a" d="M0 0h16v16H0z"/></defs><g fill="none" fill-rule="evenodd"><g fill="#262626" fill-rule="nonzero"><path d="M10.345 7.364a.91.91 0 0 1 1.72-.022l.007.022 2.125 6.376a.625.625 0 0 1-1.18.412l-.006-.017-1.803-5.409-1.803 5.41a.625.625 0 0 1-.773.4l-.017-.006a.625.625 0 0 1-.4-.773l.005-.017 2.125-6.376Z"/><path d="M12.762 10.949a.625.625 0 0 1 .018 1.25H9.654a.625.625 0 0 1-.017-1.25h3.125Z"/></g><g fill="#262626"><path fill-rule="nonzero" d="M7.75 2.625H2.312a.625.625 0 0 0-.624.625V6c0 .345.28.625.625.625H7.75c.345 0 .625-.28.625-.625V3.25a.625.625 0 0 0-.625-.625Zm-.625 1.25v1.5H2.937v-1.5h4.188Z"/><path d="M5 .875h.063c.345 0 .625.28.625.625v7c0 .345-.28.625-.625.625H5a.625.625 0 0 1-.625-.625v-7c0-.345.28-.625.625-.625Z"/></g><path fill="#262626" fill-rule="nonzero" d="M12.063 1.563c1.161 0 2.105.932 2.124 2.09v1.722a.625.625 0 0 1-1.25.017V3.687a.875.875 0 0 0-.855-.874h-1.707a.625.625 0 0 1-.017-1.25H12.063ZM2.313 9.625c.339 0 .615.27.624.608V11.938c0 .476.382.864.856.874H5.5a.625.625 0 0 1 .017 1.25H3.812a2.125 2.125 0 0 1-2.124-2.09V10.25c0-.345.28-.625.625-.625Z"/></g></svg>