<svg xmlns="http://www.w3.org/2000/svg" viewBox="0 0 12.542 13.688"><g fill="currentColor" fillRule="evenodd"><g fillRule="nonzero"><path d="M8.657 6.489a.91.91 0 0 1 1.72-.022l.007.022 2.126 6.376a.625.625 0 0 1-1.18.412l-.006-.017L9.52 7.851l-1.803 5.41a.625.625 0 0 1-.774.4l-.017-.006a.625.625 0 0 1-.4-.773l.005-.017 2.125-6.376Z"/><path d="M11.075 10.074a.625.625 0 0 1 .017 1.25H7.967a.625.625 0 0 1-.018-1.25h3.126Z"/></g><path fillRule="nonzero" d="M6.063 1.75H.625A.625.625 0 0 0 0 2.375v2.75c0 .345.28.625.625.625h5.438c.345 0 .625-.28.625-.625v-2.75a.625.625 0 0 0-.625-.625ZM5.438 3v1.5H1.25V3h4.188Z"/><path d="M3.313 0h.062C3.72 0 4 .28 4 .625v7c0 .345-.28.625-.625.625h-.063a.625.625 0 0 1-.624-.625v-7c0-.345.28-.625.624-.625Z"/><path fillRule="nonzero" d="M10.375.688c1.162 0 2.106.932 2.125 2.09V4.5a.625.625 0 0 1-1.25.017V2.812a.875.875 0 0 0-.855-.874H8.687A.625.625 0 0 1 8.67.688h1.705ZM.625 8.75c.34 0 .615.27.625.608v1.705c0 .476.381.864.855.874h1.708a.625.625 0 0 1 .017 1.25H2.125A2.125 2.125 0 0 1 0 11.098V9.376c0-.345.28-.625.625-.625Z"/></g></svg>
