<svg xmlns="http://www.w3.org/2000/svg" xmlns:xlink="http://www.w3.org/1999/xlink" width="176" height="172"><defs><path id="a" d="M76.567 0h1.065l.509.003.519.002.528.004.538.005.547.006.556.007.376.005.38.006.578.01.587.011.596.012.402.01.61.014.62.016.627.018.423.013.642.02.65.021.439.016.442.016.445.017.45.017.452.019.456.019.692.03.465.021.704.034.474.023.477.024.722.038.486.026.49.027.492.028.495.03.5.03.502.03.505.032.509.033.512.034.515.035c18.49 1.263 23.388 14.58 23.909 16.173l.027.085.021.07 8.027.438a.776.776 0 0 1 .339 1.473c-8.24 4.459-10.757 13.518-9.277 19.42.477 1.902 1.218 3.537 2.043 5.265l.521 1.087c1.91 3.995 4.054 8.831 4.404 18.565.784 21.79-18.37 41.373-41.032 41.373h-.778l-.877.003-.64.003-1.044.006-.752.004-.796.006-1.277.01-1.377.011-1.478.014-2.125.02-1.71.018-3.073.033-3.351.038-3.629.043-2.31.028-3.237.04-4.295.055-4.573.06-3.858.051-6.12.084-4.304.059-7.957.111-8.502.121-7.72.112-4.011.058 48.464-55.112.44-.5.438-.499.436-.495 2.161-2.449.427-.484.425-.483.423-.482.21-.24.42-.48.209-.24.415-.479.414-.477c4.809-5.57 9.09-11.008 12.131-17.244 3.376-9.536-.06-16.652-3.57-20.963-.27-.333-.541-.65-.81-.949-1.196-1.53-.382-4.082 1.896-4.082.185 0 .375-.002.568-.006l.44-.009.302-.005.42-.005.431-.004.293-.003.752-.005L76.09 0 76.567 0Z"/><path id="c" d="M56.196 50.587C35.22 74.192 10.256 102.913.78 113.701c-1.825 2.079-.056 4.041 1.358 4.284 70.7 12.155 93.147-21.162 98.147-36.392 6.841-20.838-2.825-31.006-8.295-34.322-18.55-11.243-32.314-.599-35.793 3.316Z"/><radialGradient id="b" cx="38.175%" cy="86.078%" r="97.067%" fx="38.175%" fy="86.078%" gradientTransform="scale(.85537 1) rotate(-46.301 .414 .785)"><stop offset="0%" stop-color="#178F67"/><stop offset="54.685%" stop-color="#31CC79" stop-opacity=".55"/><stop offset="100%" stop-color="#53E68D" stop-opacity=".8"/></radialGradient><linearGradient id="d" x1="81.468%" x2="-8.236%" y1="57.188%" y2="79.124%"><stop offset="0%" stop-color="#FFF" stop-opacity="0"/><stop offset="100%" stop-color="#D6F056"/></linearGradient></defs><g fill="none" fill-rule="evenodd"><g transform="translate(17.933 30.135)"><use xlink:href="#a" fill="#31CC79"/><use xlink:href="#a" fill="url(#b)" fill-opacity=".6"/></g><g transform="translate(17.933 30.135)"><use xlink:href="#c" fill="#93E65C"/><use xlink:href="#c" fill="url(#d)" fill-opacity=".75" style="mix-blend-mode:overlay"/></g></g></svg>