<svg xmlns="http://www.w3.org/2000/svg" xmlns:xlink="http://www.w3.org/1999/xlink" viewBox="0 0 13.13 12.06"><defs><path id="a" d="M7.657 0h.262l.054.001.054.001h.056l.038.001h.038l.057.002h.059l.06.002.04.001.06.002.063.001.063.002.042.001.064.002.065.002.044.002.044.001.045.002.045.002.045.002L9 .029l.07.003.046.002.07.003.048.003.048.002.072.004.048.002.05.003.049.003.05.003L9.6.06l.05.003.05.003.052.003.05.004.052.003c1.85.127 2.34 1.458 2.391 1.617l.003.009.002.007.803.044a.078.078 0 0 1 .034.147c-.824.446-1.076 1.352-.928 1.942.048.19.122.354.204.527l.052.108c.191.4.406.883.44 1.857.08 2.179-1.836 4.137-4.102 4.137H8.523l-.104.001h-.075l-.08.001-.128.001-.138.001-.147.002-.213.002-.17.002-.308.003-.335.004-.363.004-.231.003-.324.004-.43.005-.457.006-.385.005-.612.009-.43.006-.797.01-.85.013-.772.011-.4.006L5.62 5.059l.044-.05.043-.05.044-.05.216-.245.043-.048.042-.048.043-.049.02-.024.043-.048.02-.024.042-.047.041-.048c.481-.557.91-1.1 1.214-1.725.337-.953-.007-1.665-.357-2.096a2.578 2.578 0 0 0-.082-.095c-.12-.153-.038-.408.19-.408h.057l.044-.001h.03L7.4.001h.043L7.472 0h.137L7.657 0Z"/><path id="c" d="M5.62 5.059C3.522 7.419 1.026 10.29.078 11.37c-.183.208-.006.404.136.429 7.07 1.215 9.314-2.117 9.814-3.64.685-2.083-.282-3.1-.83-3.432-1.854-1.124-3.23-.06-3.578.332Z"/><radialGradient id="b" cx="38.175%" cy="86.078%" r="97.067%" fx="38.175%" fy="86.078%" gradientTransform="scale(.85537 1) rotate(-46.301 .414 .785)"><stop offset="0%" stop-color="#178F67"/><stop offset="54.685%" stop-color="#31CC79" stop-opacity=".55"/><stop offset="100%" stop-color="#53E68D" stop-opacity=".8"/></radialGradient><linearGradient id="d" x1="81.468%" x2="-8.236%" y1="57.188%" y2="79.124%"><stop offset="0%" stop-color="#FFF" stop-opacity="0"/><stop offset="100%" stop-color="#D6F056"/></linearGradient></defs><g fill="none" fillRule="evenodd"><g><use xlink:href="#a" fill="#31CC79"/><use xlink:href="#a" fill="url(#b)" fill-opacity=".6"/></g><g><use xlink:href="#c" fill="#93E65C"/><use xlink:href="#c" fill="url(#d)" fill-opacity=".75" style="mix-blend-mode:overlay"/></g></g></svg>
