<svg xmlns="http://www.w3.org/2000/svg" xmlns:xlink="http://www.w3.org/1999/xlink" viewBox="0 0 24 24"><defs><path id="a" d="M10.209 0h.279l.07.001h.072l.073.002h.074l.05.001.051.001.077.001.078.002.08.002h.053l.082.003.082.002.084.002.056.002.086.003.087.002.058.003.06.002.058.002.06.002.06.003.062.002.092.004.062.003.094.005.063.003.063.003.097.005.065.003.065.004.065.004.067.004.066.004.067.004.067.004.068.004.068.005.07.005c2.465.168 3.118 1.944 3.187 2.156l.004.011.003.01 1.07.058a.103.103 0 0 1 .045.197c-1.099.594-1.434 1.802-1.237 2.589.064.253.162.471.272.702l.07.145c.255.532.54 1.177.587 2.475.105 2.905-2.45 5.516-5.47 5.516h-.222l-.085.001-.14.001h-.1l-.105.001-.17.002-.184.001-.197.002-.284.003-.228.002-.41.005-.446.005-.484.005-.308.004-.432.005-.572.008-.61.008-.515.007-.816.01-.573.009-1.061.014-1.134.017-1.03.014-.534.008 6.462-7.348.058-.067.059-.066.058-.066.288-.327.057-.064.057-.065.056-.064.028-.032.056-.064.028-.032.055-.064.056-.064c.64-.742 1.211-1.467 1.617-2.299.45-1.271-.008-2.22-.476-2.795A3.437 3.437 0 0 0 9.382.55c-.16-.204-.05-.544.253-.544L9.71.005l.058-.002h.096l.058-.001h.039l.1-.001h.083L10.21 0Z"/><path id="c" d="M7.493 6.745C4.696 9.892 1.367 13.722.103 15.16c-.243.277-.007.539.182.571 9.427 1.621 12.42-2.821 13.086-4.852.912-2.778-.376-4.134-1.106-4.576-2.473-1.5-4.308-.08-4.772.442Z"/><radialGradient id="b" cx="38.175%" cy="86.078%" r="97.067%" fx="38.175%" fy="86.078%" gradientTransform="scale(.85537 1) rotate(-46.301 .414 .785)"><stop offset="0%" stop-color="#178F67"/><stop offset="54.685%" stop-color="#31CC79" stop-opacity=".55"/><stop offset="100%" stop-color="#53E68D" stop-opacity=".8"/></radialGradient><linearGradient id="d" x1="81.468%" x2="-8.236%" y1="57.188%" y2="79.124%"><stop offset="0%" stop-color="#FFF" stop-opacity="0"/><stop offset="100%" stop-color="#D6F056"/></linearGradient></defs><g fill="none" fill-rule="evenodd"><g transform="translate(1.591 4.551)"><use xlink:href="#a" fill="#31CC79"/><use xlink:href="#a" fill="url(#b)" fill-opacity=".6"/></g><g transform="translate(1.591 4.551)"><use xlink:href="#c" fill="#93E65C"/><use xlink:href="#c" fill="url(#d)" fill-opacity=".75" style="mix-blend-mode:overlay"/></g></g></svg>